<?xml version="1.0" standalone="no"?>
<!DOCTYPE svg PUBLIC "-//W3C//DTD SVG 1.1//EN" "http://www.w3.org/Graphics/SVG/1.1/DTD/svg11.dtd" >
<svg xmlns="http://www.w3.org/2000/svg">
<metadata>
Created by FontForge 20120731 at Mon May  8 10:44:31 2017
 By admin
</metadata>
<defs>
<font id="iconfont" horiz-adv-x="1024" >
  <font-face 
    font-family="iconfont"
    font-weight="500"
    font-stretch="normal"
    units-per-em="1024"
    panose-1="2 0 6 3 0 0 0 0 0 0"
    ascent="896"
    descent="-128"
    x-height="792"
    bbox="-0.0124998 -128 1849 896"
    underline-thickness="0"
    underline-position="0"
    unicode-range="U+0078-E6C6"
  />
<missing-glyph 
 />
    <glyph glyph-name=".notdef" 
 />
    <glyph glyph-name=".notdef" 
 />
    <glyph glyph-name=".null" horiz-adv-x="0" 
 />
    <glyph glyph-name="nonmarkingreturn" horiz-adv-x="341" 
 />
    <glyph glyph-name="x" unicode="x" horiz-adv-x="1001" 
d="M281 543q-27 -1 -53 -1h-83q-18 0 -36.5 -6t-32.5 -18.5t-23 -32t-9 -45.5v-76h912v41q0 16 -0.5 30t-0.5 18q0 13 -5 29t-17 29.5t-31.5 22.5t-49.5 9h-133v-97h-438v97zM955 310v-52q0 -23 0.5 -52t0.5 -58t-10.5 -47.5t-26 -30t-33 -16t-31.5 -4.5q-14 -1 -29.5 -0.5
t-29.5 0.5h-32l-45 128h-439l-44 -128h-29h-34q-20 0 -45 1q-25 0 -41 9.5t-25.5 23t-13.5 29.5t-4 30v167h911zM163 247q-12 0 -21 -8.5t-9 -21.5t9 -21.5t21 -8.5q13 0 22 8.5t9 21.5t-9 21.5t-22 8.5zM316 123q-8 -26 -14 -48q-5 -19 -10.5 -37t-7.5 -25t-3 -15t1 -14.5
t9.5 -10.5t21.5 -4h37h67h81h80h64h36q23 0 34 12t2 38q-5 13 -9.5 30.5t-9.5 34.5q-5 19 -11 39h-368zM336 498v228q0 11 2.5 23t10 21.5t20.5 15.5t34 6h188q31 0 51.5 -14.5t20.5 -52.5v-227h-327z" />
    <glyph glyph-name="qianjin" unicode="&#xe6c6;" 
d="M724 649l235 -234q6 -5 12 -16q2 -6 2 -13v-6q0 -1 -1 -3.5t-1 -3.5q0 -2 -3 -9l-4 -4q0 -3 -2 -3l-238 -238q-10 -12 -26.5 -12t-27.5 12q-12 11 -12 27t12 27l171 171h-382q-16 0 -28 12t-12 28t12 28t28 12h380l-169 169q-12 12 -12 28t12 28q11 11 27.5 11t26.5 -11z
M314 384q0 -17 -11 -28.5t-27 -11.5t-28 12t-12 28t12 28t28 12t27 -11.5t11 -28.5zM131 384q0 -16 -12 -28t-28.5 -12t-28 12t-11.5 28t11.5 28t28 12t28.5 -12t12 -28z" />
    <glyph glyph-name="canyurenshu" unicode="&#xe615;" horiz-adv-x="1365" 
d="M657 350q62 40 96.5 103t34.5 139q0 81 -40 151t-108.5 111t-146.5 41q-80 0 -147 -41t-105.5 -111t-38.5 -151q0 -75 32 -138t86 -104q-142 -53 -231 -174.5t-89 -270.5h989q0 150 -91 271.5t-241 173.5v0zM853 592q0 -65 -25.5 -127t-69.5 -104q138 -67 216 -188.5
t78 -267.5h251q0 121 -73 220.5t-189 139.5q43 33 71 89t28 107q0 104 -69 174.5t-172 70.5q-36 0 -63 -10q17 -79 17 -104z" />
    <glyph glyph-name="GroupCopy" unicode="&#xe616;" 
d="M0 896h439v-439h-439v439zM0 311h439v-439h-439v439zM585 311h439v-439h-439v439zM585 896h439v-439h-439v439z" />
    <glyph glyph-name="iconfont-jinronglicai" unicode="&#xe617;" horiz-adv-x="1170" 
d="M12 445l68 81l136 -132l266 261l156 -151l294 292l-122 100l360 -27l-532 -518l-156 151l-209 -208l-53 -55zM638 176l-156 172l-262 -270l-220 203v-345q0 -26 19 -45t45 -19h1042v0q27 0 45.5 19t18.5 45v755z" />
    <glyph glyph-name="toubu--youjian" unicode="&#xe61a;" horiz-adv-x="1280" 
d="M1280 -12q0 -48 -33.5 -82t-80.5 -34h-1052q-47 0 -80.5 34t-33.5 82v578q32 -36 72 -63q258 -179 355 -251q30 -23 49 -36t49 -30.5t58.5 -26t55.5 -8.5h2q27 0 55.5 8.5t58.5 26t49 30.5t49 36q123 90 356 251q39 27 71 63v-578zM1158 580q-277 -195 -334 -236
q-8 -5 -31 -22.5t-38 -27.5t-37 -23.5t-41.5 -20t-35.5 -6.5h-2q-16 0 -35.5 6.5t-41 20t-37 23.5t-38.5 27.5t-30 22.5q-65 46 -185.5 131.5t-148.5 104.5q-44 31 -83.5 84.5t-39.5 99.5q0 56 30 94t84 38h1052q46 0 80 -34t34 -82q0 -58 -35 -110.5t-87 -89.5z" />
    <glyph glyph-name="toubu-tongzhi" unicode="&#xe61b;" 
d="M512 -106q41 0 70.5 29.5t29.5 70.5h-200q0 -41 29.5 -70.5t70.5 -29.5zM838 195v275q0 114 -71 202.5t-180 114.5v34v0q0 31 -22 53t-53 22v0v0q-31 0 -53 -22t-22 -53v0v-34q-109 -26 -180 -114.5t-71 -202.5v-275l-101 -100v-51h854v51z" />
    <glyph glyph-name="diertoubu--qianjin" unicode="&#xe61c;" 
d="M0 768q0 53 37.5 90.5t90.5 37.5h768q53 0 90.5 -37.5t37.5 -90.5v-768q0 -53 -37.5 -90.5t-90.5 -37.5h-768q-53 0 -90.5 37.5t-37.5 90.5v768zM807 414l-6 4l-204 204q-15 16 -37 16t-37.5 -15.5t-15.5 -37.5t15 -38l124 -124h-401q-22 0 -37.5 -15.5t-15.5 -37.5
t15.5 -37.5t37.5 -15.5h399l-122 -122q-15 -16 -15 -38t15.5 -37.5t37.5 -15.5t37 16l200 201q14 5 23.5 19.5t9.5 29.5q0 11 -7 24t-16 20v0z" />
    <glyph glyph-name="dizhi" unicode="&#xe61d;" 
d="M697 136h-4q-9 0 -15.5 -6.5t-6.5 -15.5q0 -15 15 -20q50 -14 76.5 -32t26.5 -33q0 -12 -18 -27.5t-56 -28.5q-84 -31 -203 -31q-120 0 -204 31q-38 13 -55.5 28.5t-17.5 27.5q0 15 26 33t76 32q15 5 15 20q0 9 -6.5 15.5t-15.5 6.5h-4q-65 -18 -99.5 -45.5t-34.5 -61.5
q0 -32 31 -59q26 -22 70 -38q91 -33 219 -33q127 0 218 33q45 16 70 38q31 27 31 59q0 34 -34.5 61.5t-99.5 45.5zM379 559q0 57 40 97.5t96.5 40.5t96.5 -40.5t40 -97.5t-40 -97.5t-96.5 -40.5t-96.5 40.5t-40 97.5v0zM424 87q36 -41 88 -41t87 42q67 75 124 157
q130 186 130 304v1q0 59 -29.5 130.5t-70.5 112.5q-20 20 -51.5 42t-57.5 32q-26 12 -64.5 20t-67.5 8v0q-70 0 -133 -28q-53 -22 -106 -76t-76 -107q-11 -27 -18.5 -66t-7.5 -68v-1q0 -118 129 -304q57 -82 124 -158v0z" />
    <glyph glyph-name="bianjijianlicopy1" unicode="&#xe61e;" 
d="M573 286q25 11 91 43.5t104 49.5v-274q-4 -5 -11.5 -12.5t-33.5 -26t-55 -33t-74.5 -26.5t-93.5 -12q-52 0 -100.5 12t-79 26.5t-57.5 33t-35 26t-12 12.5v0v256q27 -12 202 -75q40 -15 79 -16.5t76 16.5v0zM949 526v-174l35 -37l-72 -79l-73 77l50 48v137
q-301 -131 -327 -143q-34 -17 -63 -17.5t-64 13.5q-291 116 -378 160q-56 29 -56.5 49t57.5 44q55 22 189 75t177 70q33 14 48.5 19t37.5 4t45 -14q43 -18 190.5 -79t199.5 -83q21 -10 32 -18.5t13.5 -14t-2 -11.5t-10 -9.5t-15.5 -8.5t-14 -8v0z" />
    <glyph glyph-name="bianjijianlicopy2" unicode="&#xe61f;" 
d="M264 574h576v50q0 21 -15 36t-37 15h-307v47q0 21 -15 36t-36 15h-256q-21 0 -36 -15t-15 -36v-609l89 410q0 21 15 36t37 15v0zM853 113q0 -21 -15 -36t-37 -15h-640l90 422q0 22 15 37t36 15h589q21 0 36 -15t15 -37l-89 -371v0z" />
    <glyph glyph-name="bianjijianlicopy3" unicode="&#xe620;" 
d="M50 693q2 3 5 8.5t13 19t21.5 23t30 16t37.5 3.5t44.5 -20t51.5 -50q36 -45 49 -83t7 -60t-19 -38t-24 -21.5t-13 -5.5q-3 -3 -8.5 -9t-16.5 -22.5t-16 -32t-0.5 -35t22.5 -34.5q30 -23 86.5 -71.5t98.5 -85.5l42 -36q3 -4 7.5 -9.5t19.5 -16.5t29.5 -16.5t35.5 -2
t41 20.5q45 38 71.5 51.5t53 10t59.5 -28.5q204 -152 -23 -241q-62 -26 -131 -12.5t-142.5 53t-132 82.5t-96.5 75.5t-37 33.5q-8 6 -19.5 18.5t-43.5 50.5t-58 76t-52.5 91t-37 101t-1 101t45.5 96zM490 610q-1 1 -7 -0.5t-15 2t-17 8t-12.5 18t-0.5 31.5q3 22 35.5 29.5
t68.5 -3.5q18 -5 41.5 -16t58 -35.5t61.5 -55t47.5 -79.5t22.5 -105q0 -2 -1 -5.5t-5.5 -12.5t-10.5 -15.5t-16 -10t-21 -0.5q-16 4 -24.5 20t-9.5 34t-1.5 35.5t-0.5 22.5q0 7 -7.5 22t-24 36t-38 39.5t-54.5 30.5t-69 10v0zM612 782q0 1 -7.5 0t-18.5 2.5t-21 9.5t-15 22
t-1 39q5 27 44.5 36.5t82.5 -4.5q23 -7 51.5 -20t70.5 -43t75.5 -67.5t58.5 -97t28 -128.5q-1 -2 -1.5 -4.5t-3.5 -10t-6.5 -13.5t-9 -14t-12 -11t-15.5 -5.5t-18 3.5q-12 5 -21 19t-13.5 33.5t-7 35t-4 34t-1.5 19.5q-1 8 -10 26t-28.5 43.5t-45 47.5t-66 36.5t-85.5 11.5
v0z" />
    <glyph glyph-name="bianjijianlicopy4" unicode="&#xe621;" 
d="M478 773q-4 0 -9 -1t-19.5 -5.5t-26 -11.5t-23 -21t-15.5 -32q-5 -11 -3 -23t2.5 -19.5t6.5 -17t10.5 -15t12.5 -13t14 -12t15 -12t14 -12.5q27 -26 20 -65t-41 -73q4 1 9 3t19.5 9.5t26 16.5t23.5 24.5t17 33.5q4 16 4 29.5t-1.5 22t-10.5 21t-12.5 16.5t-17.5 17.5
t-18 16.5q-27 29 -26 69t29 54zM609 748q-5 -3 -13.5 -8t-25.5 -19.5t-26.5 -29.5t-6.5 -35t25 -37q30 -24 44 -40.5t15 -33t-6.5 -30t-26.5 -36.5q3 1 9 4t20 12.5t24.5 20t17.5 26.5t4 32q-4 19 -19.5 38t-30.5 31.5t-24 28t-3 28.5zM331 713q-6 -3 -14 -8t-25.5 -19.5
t-26.5 -29t-6.5 -35t25.5 -37.5q30 -23 44 -40t15 -33.5t-6.5 -30t-27.5 -36.5q4 2 10 4.5t20 12.5t24.5 20t17.5 26t4 32q-4 19 -19.5 38.5t-30.5 31.5t-24 27.5t-3 28.5l23 48v0zM104 -46h713q26 0 44.5 17t18.5 41h-839q0 -24 18.5 -41t44.5 -17zM839 197
q-11 -6 -22 -8.5t-19 -2.5t-14.5 0.5t-9.5 2.5l-4 1q19 22 30 60.5t13 58t2 27.5q1 -1 5.5 1.5t10 3.5t18.5 -5.5t30 -21.5q19 -16 21.5 -34.5t-7 -34t-24 -28t-30.5 -20.5v0zM345 77q-138 87 -138 301h85q-11 -28 -13 -59.5t5 -61.5t15 -55t21 -50t18.5 -35.5t12.5 -20.5
q5 -10 4 -14t-6 -5h-4zM957 296q-4 24 -19.5 42t-35.5 26.5t-39.5 13.5t-32.5 6l-13 1q0 12 -10.5 23t-20.5 16l-11 5h-603q-17 0 -28 -12t-14 -24l-2 -11q6 -197 134 -311q32 -27 57 -39h316q20 12 47 40.5t44 49.5t17 22q7 -2 45 0t58 5q12 2 31 13.5t39.5 29.5t33 46
t7.5 58v0z" />
    <glyph glyph-name="bianjijianlicopy5" unicode="&#xe622;" 
d="M814 -31q15 0 26 -10.5t11 -24.5q-1 -15 -11.5 -25.5t-24.5 -10.5h-1h-649h-1q-15 0 -25.5 10.5t-10.5 25.5q0 14 10.5 24.5t26.5 10.5h649zM163 17l88 228l144 -139l-232 -89v0zM424 132l-145 141l395 378l144 -140zM846 540l-145 140l72 71q18 17 43.5 17t43.5 -17
l58 -57q18 -17 18 -42t-18 -42l-73 -70h1z" />
    <glyph glyph-name="bianjijianlicopy6" unicode="&#xe623;" 
d="M860 446l-1 4q0 15 -12 23l-37 27l23 41q3 7 3 15q0 6 -2 11q-14 36 -46 77t-63 64q-8 6 -17 6q-4 0 -8 -1l-44 -14l-17 44q-5 14 -19 18q-43 12 -87.5 12t-87.5 -12q-14 -4 -19 -18l-17 -44l-44 14q-4 1 -8 1q-9 0 -17 -6q-31 -23 -63 -64t-46 -77q-3 -5 -3 -11
q0 -8 4 -15l23 -41l-37 -27q-12 -8 -12 -22l-1 -5v-11v0q0 -35 11.5 -82.5t27.5 -78.5q7 -13 21 -15l45 -7l-3 -47v-2q0 -13 9 -22q29 -26 75.5 -49t83.5 -30h5q12 0 20 8l32 31l33 -31q11 -10 25 -8q37 7 83.5 30.5t75.5 48.5q9 9 9 22v2l-3 47l45 7q14 2 21 15
q16 31 27.5 78.5t11.5 82.5v0v11v0zM532 277q-64 0 -110 47t-46 113.5t46 113.5t110.5 47t110.5 -47t46 -113.5t-46 -113.5t-111 -47v0zM755 147q-28 -24 -74.5 -46t-83.5 -29h-5.5h-4.5l24 -96q3 -9 12 -15.5t18 -6.5q15 0 24 11l45 53l83 -21q4 -1 9 -1q15 0 24 12
q13 17 0 38l-71 101v0zM479 72v0h-5q-38 7 -86 30t-77 49l-73 -107q-12 -19 1 -36q9 -12 24 -12q4 0 8 1l83 21l44 -52q10 -12 25 -12q3 0 6 1q8 1 15 8t9 14l27 95h-0.5h-0.5z" />
    <glyph glyph-name="bianjijianlicopy7" unicode="&#xe624;" 
d="M1024 62q0 -37 -27 -64t-64 -27h-842q-37 0 -64 27t-27 64v454q25 -28 58 -50q206 -140 284 -197q33 -24 53 -37.5t54 -27.5t62 -14h2q28 0 62 14t54 27.5t53 37.5q94 68 285 197q31 22 57 50v-454v0zM926 528q-220 -153 -267 -186q-6 -4 -24.5 -17.5t-30.5 -21.5
t-29.5 -18.5t-33 -15.5t-28.5 -5h-2q-13 0 -28.5 5t-33 15.5t-29.5 18.5t-30.5 21.5t-24.5 17.5q-51 36 -146.5 102t-120.5 84q-35 23 -66.5 65.5t-31.5 78.5q0 44 24 74t67 30h842q37 0 64 -27t27 -65q0 -45 -28 -86.5t-70 -70.5v1z" />
    <glyph glyph-name="bianjijianlicopy8" unicode="&#xe625;" 
d="M458 -128h-5h-267q-70 0 -106 61q-14 24 -16 52v10v1v101.5v119v101.5q0 64 50 101q13 9 33 16t36 7h3h85q5 0 7 -5q14 -45 178 -559q1 -1 2 -6v0zM489 896q91 0 155 -65.5t64 -158.5t-64 -158.5t-155 -65.5t-155.5 66t-64.5 158t64.5 158t155.5 66zM489 -16l-17 53
q-81 251 -89 276q-2 7 3 12q37 31 99 84q4 3 7 0q50 -43 101 -86q3 -3 2 -7l-105 -327l-1 -5v0zM913 157v161q0 33 -13 58q-33 61 -98 65q-6 1 -48.5 1h-48.5q-4 0 -5 -5l-18 -54l-161 -505q-2 -6 3 -6h149.5h119.5q34 0 61 16q59 37 59 107v162zM830 62q-3 -1 -10 -1h-86
h-59q-9 0 -14.5 6t-3.5 15q3 12 15 12q3 1 17 1h60h74q15 -1 17 -14v-3q0 -11 -10 -16v0z" />
    <glyph glyph-name="bianjijianlicopy9" unicode="&#xe626;" 
d="M318 469.5q0 72.5 49 124t117.5 51.5t117.5 -51.5t49 -124t-49 -123.5t-117.5 -51t-117.5 51t-49 123.5zM373 -63q44 -49 107 -49q26 0 57.5 14.5t48.5 35.5q78 83 152 187q157 220 157 360q0 84 -33 160q-27 63 -92 127t-129 91q-32 13 -79 22.5t-82 9.5h-1v0
q-71 0 -157 -35.5t-136 -84.5q-24 -24 -50 -62t-39 -68q-14 -32 -23.5 -78.5t-9.5 -80.5v-1q0 -140 157 -360q71 -99 152 -188v0z" />
    <glyph glyph-name="bianjijianlicopy10" unicode="&#xe627;" 
d="M569 327v-171q0 -23 -16.5 -39.5t-40.5 -16.5t-40.5 16.5t-16.5 39.5v171h-171q-23 0 -39.5 16.5t-16.5 40.5t16.5 40.5t39.5 16.5h171v171q0 23 16.5 39.5t40.5 16.5t40.5 -16.5t16.5 -39.5v-171h171q23 0 39.5 -16.5t16.5 -40.5t-16.5 -40.5t-39.5 -16.5h-171z
M512 -128q139 0 257 68.5t186.5 186.5t68.5 257t-68.5 257t-186.5 186.5t-257 68.5t-257 -68.5t-186.5 -186.5t-68.5 -257t68.5 -257t186.5 -186.5t257 -68.5z" />
    <glyph glyph-name="bianjijianlicopy11" unicode="&#xe628;" 
d="M512 896v0q-104 0 -198.5 -40.5t-163 -109t-109 -163t-40.5 -198.5t40.5 -198.5t109 -163t163 -109t198.5 -40.5v0q104 0 198.5 40.5t163 109t109 163t40.5 198.5t-40.5 198.5t-109 163t-163 109t-198.5 40.5zM665 407v-50h-121v-69h121v-50h-121v-100h-63v100h-126v50
h126v69h-126v50h107l-131 225h71q92 -168 112 -213h1q7 19 37 75l75 138h66l-132 -225h104z" />
    <glyph glyph-name="bianjijianli" unicode="&#xe629;" 
d="M631 387q4 -12 4 -26q0 -42 -30 -72t-73 -31q-42 0 -72 30.5t-30 72.5q0 14 4 26h-311v-283v0q0 -43 30 -73t72 -30h615q42 0 72 30t30 73v283h-311v0zM840 670h-154v52q0 21 -15 36t-36 15h-205q-21 0 -36 -15t-15 -36v-52h-154q-42 0 -72 -30t-30 -73v-129h819v129v0
q0 43 -30 73t-72 30zM584 361q0 14 -8 26h-88q-8 -16 -8 -26q0 -21 15 -36t36 -15t37 15t16 36z" />
    <glyph glyph-name="bianjijianlicopy12" unicode="&#xe62a;" horiz-adv-x="1085" 
d="M574.5 896q-103.5 0 -198 -40.5t-163 -109t-109 -163t-40.5 -198t40.5 -198.5t109 -163t163 -108.5t198 -40.5t198.5 40.5t163 108.5t108.5 163t40.5 198.5t-40.5 198t-108.5 163t-163 109t-198.5 40.5zM821 470l-293 -297h-1v-1q-1 -1 -8 -5l-1.5 -1t-2.5 -1
q-6 -3 -13 -3t-14 3q-1 0 -2.5 1l-1.5 1q-6 4 -8 6v0v0l-145 148q-10 11 -10 25q0 15 11 26t26 11t26 -10l118 -122l267 270q11 11 26 11t26 -11t11 -26t-11 -25v0z" />
    <glyph glyph-name="bianjijianlicopy" unicode="&#xe62b;" 
d="M123 732v-205h819v205h-819zM893 581h-361v98h361v-98zM123 200v-205h819v205h-819zM893 48h-361v103h361v-103zM123 466v-205h819v205h-819zM893 314h-361v103h361v-103z" />
    <glyph glyph-name="bianjijianlicopy13" unicode="&#xe62c;" 
d="M194 134q-12 0 -20.5 -8.5t-8.5 -20.5t8.5 -21t20.5 -9v0v0q6 0 15.5 -0.5t35 -5t49 -12.5t52.5 -26t50 -42q9 -9 22 -9q11 0 19 7q10 9 10 22q0 11 -7 19q-27 30 -62 51.5t-64 32t-58.5 16t-43 6t-18.5 0.5zM838 134q-5 0 -18 -0.5t-42 -6t-58 -15.5t-64.5 -32
t-62.5 -51q-8 -9 -8 -20q0 -12 8.5 -20.5t20.5 -8.5q13 0 22 9q22 24 51 42t53 26t49 12.5t34.5 5.5t14.5 1v0v0q12 0 21 8.5t9 20.5t-9 20.5t-21 8.5zM808 292q48 80 57.5 175t-21.5 170q-3 7 -10.5 12t-15.5 6h-9q-86 0 -159 -33q-51 95 -115 142q-9 8 -21 8q-11 0 -19 -7
q-65 -47 -116 -142q-72 32 -156 32h-8q-8 0 -16 -5.5t-11 -12.5q-31 -75 -21 -170t57 -175q41 -69 102 -111t135 -51q5 -2 9 -2h17v-145q0 -12 8.5 -20.5t20.5 -8.5t20.5 8.5t8.5 20.5v145h18q4 0 8 2q74 9 135.5 51t101.5 111v0z" />
    <glyph glyph-name="fjjl" unicode="&#xe62d;" 
d="M0 896v-893l81 66v761h760v66h-841zM172 765v-893l426 319l426 -319v893h-852z" />
    <glyph glyph-name="scfj" unicode="&#xe62e;" 
d="M906 235v-236h-788v236q0 25 -17 42t-41.5 17t-42 -17t-17.5 -42v-295q0 -25 17.5 -42t41.5 -17h906q24 0 41.5 17t17.5 42v295q0 25 -17.5 42t-42 17t-41.5 -17t-17 -42zM512 832v0q-11 0 -24 -5.5t-20 -14.5l-177 -196q-15 -17 -15 -40q0 -24 17 -41.5t42 -17.5
q26 0 44 20l74 82v-388q0 -24 17 -41.5t41.5 -17.5t42 17.5t17.5 41.5v388l74 -82q8 -9 20.5 -14.5t23.5 -5.5q25 0 42.5 17t17.5 42q0 23 -16 40l-177 196q-7 9 -20 14.5t-24 5.5v0v0z" />
    <glyph glyph-name="search" unicode="&#xe635;" 
d="M507 829h-1q-83 0 -157 -31.5t-130.5 -87.5t-87.5 -130t-31 -156.5t31 -156.5t87.5 -130t130.5 -87.5t157 -31.5h1.5h1.5q82 0 156.5 31.5t130.5 87.5t87.5 130t31.5 156.5t-31.5 156.5t-87.5 130t-130.5 87.5t-156.5 31.5h-2v0zM507 -49h-1q-97 0 -183 36.5t-152 102
t-102.5 151.5t-36.5 182.5t36.5 182.5t102.5 152q66 65 152.5 101.5t182.5 36.5h1q96 0 182.5 -35.5t154.5 -102.5q65 -66 102 -152t37 -182t-37 -182.5t-102 -151.5q-66 -66 -152.5 -102.5t-182.5 -36.5h-2v0zM925 -107l-189 188l48 47l189 -188z" />
    <glyph glyph-name="PageCopy1" unicode="&#xe636;" horiz-adv-x="1117" 
d="M822 517h252v196q0 76 -56 129.5t-136 53.5h-206v-240q0 -58 43 -98.5t103 -40.5zM822 394q-114 0 -194.5 76.5t-80.5 185.5v240h-355q-79 0 -135.5 -53.5t-56.5 -129.5v-658q0 -76 56.5 -129.5t135.5 -53.5h690q80 0 136 53.5t56 129.5v339h-252z" />
    <glyph glyph-name="guankanzhuangtaicopy" unicode="&#xe637;" horiz-adv-x="1450" 
d="M724 -64q-81 0 -165 26t-153 66.5t-134 91t-113 100.5t-84.5 93t-55.5 70.5t-19 31.5q0 5 19 32.5t55.5 70.5t85 93.5t113 100.5t133.5 91t153 67t165 26q82 0 166.5 -27t154.5 -69.5t135 -93.5t114 -103t84.5 -94t54.5 -68.5t17 -25.5q0 1 -12.5 -15t-35 -43.5
t-53.5 -63.5t-71.5 -76t-86.5 -79.5t-101.5 -76t-112 -64.5t-122.5 -44.5t-131 -16.5zM722 742q-127 0 -217 -93t-90 -226q0 -86 41 -159.5t111.5 -116t154.5 -42.5q83 0 154 42.5t112.5 116t41.5 159.5q0 133 -90 226t-218 93v0zM720.5 283q-60.5 0 -103 44.5t-42.5 106.5
t42.5 106t103 44t103 -43.5t42.5 -106t-42.5 -107t-103 -44.5z" />
    <glyph glyph-name="shoucang" unicode="&#xe62f;" horiz-adv-x="1097" 
d="M775 896q-73 0 -139 -33q-14 -7 -28.5 -16.5t-33.5 -23t-29 -19.5q-2 1 -4 3q-38 37 -102.5 63t-117.5 26q-86 0 -161 -44q-66 -38 -113 -119t-47 -158q0 -27 5 -55q18 -106 103 -192q159 -160 372 -374q12 -12 32 -20.5t36.5 -8.5t36.5 8.5t32 20.5q194 193 385 389
q114 118 92 278q-17 120 -109.5 197.5t-209.5 77.5zM775 816q91 0 159.5 -59t80.5 -147q17 -122 -69 -211q-191 -195 -385 -389q-5 -5 -12 -5v0h-1q-7 0 -12 5l-372 374q-67 68 -81 150q-4 20 -4 41q0 57 35.5 118t84.5 90q24 14 59.5 23.5t62.5 9.5q95 0 166 -67
q27 -25 57 -25q24 0 44 13q11 7 32 21q25 19 52 34q20 10 50.5 17t52.5 7v0v0z" />
    <glyph glyph-name="bi" unicode="&#xe630;" 
d="M608 782l-506 -505l269 -277l507 513q23 23 39 62.5t16 71.5q0 33 -16.5 72.5t-39.5 62.5t-62.5 39.5t-71.5 16.5h-1q-79 0 -134 -56v0zM90 -13h212l-212 218v-218v0zM32 -71v360l534 534q30 30 81.5 51.5t94.5 21.5v0q104 0 176 -73q30 -30 51.5 -81.5t21.5 -94.5
q0 -42 -21 -93.5t-51 -81.5l-536 -543h-351v0z" />
    <glyph glyph-name="liaotian" unicode="&#xe631;" 
d="M508 896h9q41 0 96.5 -11t93.5 -27q93 -39 163 -107q29 -29 61.5 -76t49.5 -84q41 -92 42 -197q1 -5 1 -10q0 -38 -10.5 -90.5t-24.5 -87.5q-15 -36 -43.5 -82t-55.5 -74q-27 -29 -70.5 -62t-78.5 -50q-36 -19 -90 -34.5t-95 -20.5q-51 -6 -119.5 -9.5t-176.5 7.5
q-53 4 -106 13q-37 7 -73 16q-22 6 -42 14q-12 6 -7 8q67 12 106 33q23 14 19 37q-5 26 -23 44q-25 28 -53 72.5t-42 78.5q-16 37 -27.5 92t-11.5 95v10q0 40 11 95.5t27 92.5q39 93 108 162q29 30 77 62t86 48q39 17 97.5 29.5t101.5 12.5v0zM344 295q36 0 61.5 26
t25.5 60.5t-25 60.5q-11 11 -28.5 18.5t-31.5 7.5h-2q-37 0 -62 -26t-25 -60.5t25 -60.5t62 -26v0zM681 297q35 0 60 24t25 59t-25 60q-10 10 -27 17.5t-32 7.5h-1q-35 0 -60 -25q-10 -10 -17 -27t-7 -31v-2q0 -35 24.5 -59t59.5 -24v0z" />
    <glyph glyph-name="xianxingliaotian" unicode="&#xe632;" 
d="M508 864v-32v32h9q38 0 90.5 -10.5t87.5 -25.5q87 -36 153 -100q27 -27 57.5 -71t46.5 -79q16 -37 28 -91t12 -94v-9q0 -36 -9.5 -85.5t-23.5 -82.5q-13 -34 -40.5 -77t-52 -69.5t-65.5 -57.5t-74 -47q-33 -17 -83.5 -32t-88.5 -19q-46 -6 -107 -9q-63 -3 -159 6
q-48 4 -96 12q-41 8 -67 15q-22 6 -42 15q-9 4 -16 11q-14 15 -7.5 33t26.5 22q50 10 83 25q-3 14 -12 23q-24 26 -50 67t-40 73q-14 35 -25 87t-11 90v8q0 39 10.5 91t25.5 87t44.5 80t57 72t72 57.5t80.5 45.5zM200 -11l-3 -1l8 -2q38 -6 90 -11q92 -9 150 -6t103 8
q33 4 77 17t73 28q29 14 64.5 40.5t57.5 50.5q21 23 44.5 60.5t35.5 66.5t20 71t8 73v8q0 34 -10.5 81t-24.5 79q-13 30 -39.5 68.5t-50.5 62t-63 49t-70 37.5q-30 13 -75 22t-78 9h-8l-1 32l1 -32q-35 0 -82.5 -10t-79.5 -24q-31 -13 -69.5 -39t-62.5 -50t-49.5 -62.5
t-38.5 -69.5q-13 -30 -22 -75t-9 -78v-8q1 -81 31 -151q12 -28 34.5 -64t43.5 -59q23 -25 28 -55zM365 306q-32 0 -54 23q-9 9 -15.5 24t-6.5 28v1q0 30 22 52.5t54 22.5t54 -22.5t22 -53t-22 -52.5zM713 329q-9 -9 -24 -15.5t-28 -6.5h-1q-31 0 -52 22q-9 8 -15 23t-6 27v1
q0 31 21 53t52 22t53 -22t22 -53z" />
    <glyph glyph-name="neituisousuo" unicode="&#xe633;" horiz-adv-x="3829" 
d="M619 763q-76 0 -146.5 -29.5t-124.5 -84.5q-56 -55 -85 -127t-29 -144t29 -144t85 -127q54 -55 124.5 -85t146.5 -30t146 30t125 85q74 74 100.5 172.5t0 197t-100.5 172.5q-55 55 -125 84.5t-146 29.5zM619 -62q-90 0 -173 34.5t-146 98.5q-86 86 -116.5 201t0 228.5
t116.5 196.5q63 64 146 98.5t173 34.5t173 -34.5t146 -98.5q86 -86 116.5 -201t0 -228.5t-116.5 -196.5q-62 -66 -144 -99.5t-175 -33.5zM1089 -128l-181 175l42 42l181 -175z" />
    <glyph glyph-name="chenggong" unicode="&#xe634;" 
d="M991 556q-2 7 -9 11.5t-14 4.5q-4 0 -8 -1q-7 -3 -11.5 -9.5t-4.5 -13.5q0 -4 1 -8q12 -32 20 -78t8 -79v-1q0 -94 -36.5 -179.5t-98.5 -147t-147.5 -98t-179.5 -36.5t-179.5 36.5t-147.5 98.5t-98.5 147t-36.5 179t36.5 179.5t98.5 147t147.5 98.5t179.5 37v0
q58 0 132 -22.5t122 -53.5q6 -4 13 -4q10 0 17 7t7 17q0 13 -11 20q-52 35 -134 59.5t-145 24.5h-1q-104 0 -198.5 -40.5t-163 -108.5t-109 -162.5t-40.5 -198t40.5 -198t109 -163t163 -109t198.5 -40.5t198.5 40.5t163 109t109 163t40.5 197.5v1q0 37 -9 87.5t-22 85.5z
M482 237l-198 197q-9 11 -23 11q-13 0 -22.5 -9.5t-9.5 -23.5t10 -23l221 -221q9 -9 22.5 -9t23.5 9l328 328q10 9 10 23t-9.5 23.5t-23.5 9.5t-23 -11z" />
    <glyph glyph-name="xiala" unicode="&#xe638;" horiz-adv-x="1934" 
d="M174 845q-10 9 -27 16t-30 7q-17 0 -36.5 -9.5t-30.5 -22.5q-9 -11 -15.5 -28.5t-6.5 -30.5q0 -17 9 -37.5t22 -31.5l810 -728q11 -10 27.5 -16.5t30.5 -6.5t30.5 6.5t26.5 15.5l833 722q13 12 22.5 32.5t9.5 37.5q0 33 -21 59q-10 13 -30 22.5t-37 9.5q-13 0 -30 -6
t-27 -15l-776 -673z" />
    <glyph glyph-name="jiantou" unicode="&#xe639;" 
d="M546 -113l463 461q14 15 15 36q0 21 -15 36l-463 461q-15 15 -36.5 15t-36.5 -15t-15 -36t15 -36l375 -374h-797v0q-21 0 -36 -15t-15 -36q0 -22 15 -38.5t36 -16.5h797l-375 -370q-15 -15 -15 -36t15 -36t36 -15t37 15v0z" />
  </font>
</defs>
</svg>
